<svg width="144" height="125" viewBox="0 0 144 125" fill="none" xmlns="http://www.w3.org/2000/svg">
<g filter="url(#filter0_d_1_157)">
<path fill-rule="evenodd" clip-rule="evenodd" d="M31.3762 53.2828C30.8324 53.6784 30.7282 54.4188 31.1436 54.9367L42.8547 69.5364C43.2701 70.0543 44.0478 70.1535 44.5917 69.7579L56.779 60.895C57.3229 60.4994 57.4271 59.759 57.0117 59.2411L45.3006 44.6414C44.8852 44.1235 44.1075 44.0244 43.5636 44.4199L31.3762 53.2828ZM49.9084 62.029C51.1061 62.029 52.077 61.1046 52.077 59.9642C52.077 58.8239 51.1061 57.8994 49.9084 57.8994C48.7108 57.8994 47.7399 58.8239 47.7399 59.9642C47.7399 61.1046 48.7108 62.029 49.9084 62.029Z" fill="url(#paint0_linear_1_157)"/>
<path d="M83.0561 6.27917C78.4092 8.34396 75.6211 6.57414 75.6211 6.57414L78.6456 13.4856C78.8597 13.4036 79.0936 13.3585 79.3386 13.3585H85.5344C85.6786 13.3585 85.8189 13.3741 85.9536 13.4037L88.9422 6.57414C88.9422 6.57414 86.1948 4.88454 83.0561 6.27917Z" fill="url(#paint1_linear_1_157)"/>
<path d="M81.1527 28.1915C80.8417 27.9068 80.6862 27.5107 80.6862 27.0032C80.6862 26.4585 80.8482 26.0253 81.1721 25.7034C81.509 25.3816 81.9559 25.1897 82.5131 25.1278V28.8785C81.93 28.7052 81.4766 28.4762 81.1527 28.1915Z" fill="url(#paint2_linear_1_157)"/>
<path d="M85.1173 34.1517C84.7933 34.4983 84.3464 34.7149 83.7763 34.8016V31.0324C84.3593 31.2057 84.8063 31.4347 85.1173 31.7194C85.4412 31.9917 85.6031 32.3754 85.6031 32.8705C85.6031 33.3657 85.4412 33.7927 85.1173 34.1517Z" fill="url(#paint3_linear_1_157)"/>
<path fill-rule="evenodd" clip-rule="evenodd" d="M66.9653 36.5299C67.6222 27.5818 75.9964 18.7079 78.1939 16.5228C78.5094 16.7579 78.9068 16.8981 79.3386 16.8981H85.5344C85.8857 16.8981 86.2141 16.8054 86.4943 16.6442C88.769 18.9149 96.3044 26.9865 97.6164 35.4813C98.1398 38.87 97.7424 41.5403 96.7006 43.5902C96.0478 43.8353 95.4382 44.0724 94.8643 44.3008C94.9526 44.1857 95.0347 44.069 95.1106 43.951C95.8754 42.7617 96.0741 41.2326 94.9569 40.018C93.951 38.9244 92.1569 38.431 89.8716 38.431C88.9957 38.431 87.9661 38.5545 86.9036 38.7069C86.4388 38.7736 85.9776 38.8442 85.5084 38.9161C84.852 39.0166 84.1802 39.1194 83.4618 39.2172C81.0387 39.5468 78.5855 39.7391 76.4837 39.3388C75.4115 39.1347 74.2225 38.7714 72.8877 38.3339C72.5907 38.2366 72.2862 38.1355 71.9755 38.0323C70.9157 37.6804 69.7833 37.3044 68.6224 36.9699C68.0823 36.8142 67.5294 36.6655 66.9653 36.5299ZM87.3522 34.5045C87.6761 33.9598 87.8381 33.3781 87.8381 32.7591C87.8381 31.9422 87.6502 31.3047 87.2745 30.8467C86.8987 30.3763 86.4388 30.0359 85.8946 29.8255C85.3505 29.6026 84.6444 29.3922 83.7763 29.1942V25.1836C84.2298 25.295 84.5925 25.5054 84.8646 25.8149C85.1367 26.1119 85.2922 26.4523 85.331 26.8361H87.702C87.6113 25.8087 87.2162 25.0041 86.5165 24.4223C85.8298 23.8281 84.9164 23.4815 83.7763 23.3825V21.8785H82.5131V23.3825C81.2952 23.4939 80.3105 23.89 79.559 24.5708C78.8076 25.2393 78.4319 26.0872 78.4319 27.1146C78.4319 27.9316 78.6197 28.5752 78.9955 29.0456C79.3841 29.516 79.8506 29.8626 80.3947 30.0854C80.9389 30.2958 81.645 30.5063 82.5131 30.7167V34.8016C81.9819 34.7149 81.5737 34.5169 81.2887 34.2074C81.0037 33.8856 80.8417 33.4833 80.8028 33.0005H78.4319C78.4319 34.0156 78.8076 34.8325 79.559 35.4515C80.3105 36.0704 81.2952 36.4355 82.5131 36.5469V38.0509H83.7763V36.5469C84.6184 36.4727 85.344 36.2499 85.9529 35.8785C86.5748 35.5072 87.0413 35.0492 87.3522 34.5045Z" fill="url(#paint4_linear_1_157)"/>
<path d="M56.7234 57.604L46.8101 45.2152C49.908 41.9705 52.3863 38.4309 58.892 37.251C65.3977 36.0711 71.5935 39.6107 76.2404 40.4957C80.8873 41.3806 86.7734 39.6107 89.8713 39.6107C98.5456 39.6107 93.8987 47.28 85.2244 46.3951C76.5502 45.5102 73.1425 47.28 76.86 47.8699C80.5775 48.4599 84.6049 49.3448 88.3224 48.1649C92.0399 46.985 95.4476 44.9202 104.432 42.2655C111.619 40.1417 113.209 42.1672 113.106 43.4454C106.91 46.985 93.1552 54.7723 87.7028 57.604C80.8873 61.1436 82.1265 61.7336 73.1425 59.0788C65.9553 56.955 59.2018 57.2107 56.7234 57.604Z" fill="url(#paint5_linear_1_157)"/>
<path d="M78.0991 15.1284C78.0991 14.6397 78.5152 14.2435 79.0285 14.2435H85.844C86.3572 14.2435 86.7733 14.6397 86.7733 15.1284C86.7733 15.6172 86.3572 16.0134 85.844 16.0134H79.0285C78.5152 16.0134 78.0991 15.6172 78.0991 15.1284Z" fill="#F54748"/>
</g>
<defs>
<filter id="filter0_d_1_157" x="0.88916" y="0.727539" width="142.221" height="124.273" filterUnits="userSpaceOnUse" color-interpolation-filters="sRGB">
<feFlood flood-opacity="0" result="BackgroundImageFix"/>
<feColorMatrix in="SourceAlpha" type="matrix" values="0 0 0 0 0 0 0 0 0 0 0 0 0 0 0 0 0 0 127 0" result="hardAlpha"/>
<feOffset dy="25"/>
<feGaussianBlur stdDeviation="15"/>
<feColorMatrix type="matrix" values="0 0 0 0 0.972549 0 0 0 0 0.262745 0 0 0 0 0.266667 0 0 0 0.1 0"/>
<feBlend mode="normal" in2="BackgroundImageFix" result="effect1_dropShadow_1_157"/>
<feBlend mode="normal" in="SourceGraphic" in2="effect1_dropShadow_1_157" result="shape"/>
</filter>
<linearGradient id="paint0_linear_1_157" x1="44.0776" y1="44.1776" x2="44.0776" y2="70.0002" gradientUnits="userSpaceOnUse">
<stop stop-color="#E32223"/>
<stop offset="1" stop-color="#FD6C6D"/>
</linearGradient>
<linearGradient id="paint1_linear_1_157" x1="82.4058" y1="5.72754" x2="82.4058" y2="44.3008" gradientUnits="userSpaceOnUse">
<stop stop-color="#FF7374"/>
<stop offset="1" stop-color="#E22123"/>
</linearGradient>
<linearGradient id="paint2_linear_1_157" x1="82.4058" y1="5.72754" x2="82.4058" y2="44.3008" gradientUnits="userSpaceOnUse">
<stop stop-color="#FF7374"/>
<stop offset="1" stop-color="#E22123"/>
</linearGradient>
<linearGradient id="paint3_linear_1_157" x1="82.4058" y1="5.72754" x2="82.4058" y2="44.3008" gradientUnits="userSpaceOnUse">
<stop stop-color="#FF7374"/>
<stop offset="1" stop-color="#E22123"/>
</linearGradient>
<linearGradient id="paint4_linear_1_157" x1="82.4058" y1="5.72754" x2="82.4058" y2="44.3008" gradientUnits="userSpaceOnUse">
<stop stop-color="#FF7374"/>
<stop offset="1" stop-color="#E22123"/>
</linearGradient>
<linearGradient id="paint5_linear_1_157" x1="85.0808" y1="38.9348" x2="87.8159" y2="56.8273" gradientUnits="userSpaceOnUse">
<stop stop-color="#E22123"/>
<stop offset="1" stop-color="#FF7374"/>
</linearGradient>
</defs>
</svg>
